#!OML:ASF H:\Punching\Project 1\Capture day 1\Session 1\female.ASF
:FULLY-SPECIFIED
:DEGREES
316
root -0.137541 14.9542 -1.79753 8.11574 -0.93796 -0.709612
lowerback 2.8655 -0.707064 0.480485
upperback -5.88185 -0.951489 -0.455069
thorax -7.77215 -0.514333 -0.655072
lowerneck -13.0174 2.32468 9.22409
upperneck 31.1297 3.09255 -6.83927
head 12.7594 1.57651 -3.80754
rclavicle 9.91439e-015 -4.37326e-015
rhumerus 32.0834 11.7149 -62.2615
rradius 65.6783
rwrist 0.0839548
rhand 29.5183 -34.4407
rfingers 7.12502
rthumb 53.2734 -53.7584
lclavicle 9.91439e-015 -4.37326e-015
lhumerus 27.3583 -9.88355 56.9762
lradius 79.7098
lwrist -9.48987
lhand 34.4732 25.1508
lfingers 7.12502
lthumb 57.6773 41.1582
rfemur -26.3852 -4.9697 16.8082
rtibia 49.4713
rfoot -27.8693 -8.74964
rtoes -12.9448
lfemur -27.2761 1.797 -16.7747
ltibia 49.59
lfoot -25.2701 9.61472
ltoes -13.0041
317
root -0.137501 14.9552 -1.79488 8.11598 -0.92416 -0.682861
lowerback 2.85818 -0.705793 0.465444
upperback -5.86529 -0.951179 -0.461737
thorax -7.74984 -0.513406 -0.653859
lowerneck -13.0364 2.35839 9.21975
upperneck 31.188 3.18163 -6.95264
head 12.7983 1.60187 -3.84076
rclavicle 1.32937e-015 -7.7526e-015
rhumerus 32.1058 11.7089 -62.2493
rradius 65.6704
rwrist 0.0754571
rhand 29.4749 -34.4163
rfingers 7.12502
rthumb 53.2342 -53.7592
lclavicle 1.32937e-015 -7.7526e-015
lhumerus 27.3804 -9.8837 56.9611
lradius 79.6976
lwrist -9.47486
lhand 34.4544 25.152
lfingers 7.12502
lthumb 57.6609 41.1739
rfemur -26.3609 -5.0101 16.7794
rtibia 49.4521
rfoot -27.8696 -8.7394
rtoes -13.0067
lfemur -27.2549 1.77324 -16.8039
ltibia 49.5707
lfoot -25.2785 9.61195
ltoes -12.9443
318
root -0.137617 14.9563 -1.79127 8.11881 -0.929329 -0.702983
lowerback 2.84201 -0.702377 0.488607
upperback -5.87129 -0.943954 -0.445087
thorax -7.74684 -0.51068 -0.650224
lowerneck -13.0148 2.38738 9.26543
upperneck 31.2827 3.28642 -7.16068
head 12.848 1.62916 -3.91955
rclavicle 3.80176e-015 5.76476e-015
rhumerus 32.1039 11.7336 -62.2533
rradius 65.6683
rwrist 0.0699269
rhand 29.4964 -34.4019
rfingers 7.12502
rthumb 53.2537 -53.7323
lclavicle 3.80176e-015 5.76476e-015
lhumerus 27.3258 -9.88112 56.9727
lradius 79.6976
lwrist -9.48935
lhand 34.5075 25.1152
lfingers 7.12502
lthumb 57.7073 41.0964
rfemur -26.3396 -5.01889 16.8038
rtibia 49.4308
rfoot -27.8588 -8.74638
rtoes -13.1042
lfemur -27.2293 1.77798 -16.7829
ltibia 49.5478
lfoot -25.2683 9.62789
ltoes -13.0369
319
root -0.138428 14.9574 -1.78884 8.13009 -0.935715 -0.716512
lowerback 2.82598 -0.68107 0.517223
upperback -5.867 -0.914236 -0.457726
thorax -7.73308 -0.498143 -0.682556
lowerneck -13.0084 2.40025 9.30286
upperneck 31.349 3.34794 -7.30843
head 12.8837 1.64335 -3.97846
rclavicle -7.4917e-015 4.37326e-015
rhumerus 32.0701 11.6938 -62.2597
rradius 65.6824
rwrist 0.0681351
rhand 29.4809 -34.4028
rfingers 7.12502
rthumb 53.2396 -53.7422
lclavicle -7.4917e-015 4.37326e-015
lhumerus 27.3631 -9.93459 56.9481
lradius 79.671
lwrist -9.50274
lhand 34.4802 25.0747
lfingers 7.12502
lthumb 57.6834 41.0768
rfemur -26.3404 -5.02101 16.8248
rtibia 49.4176
rfoot -27.8646 -8.73551
rtoes -13.0638
lfemur -27.2248 1.79358 -16.7649
ltibia 49.5325
lfoot -25.2678 9.60801
ltoes -12.9989
320
root -0.1381 14.9584 -1.78627 8.1261 -0.92743 -0.682003
lowerback 2.83157 -0.691894 0.491177
upperback -5.87701 -0.930426 -0.455595
thorax -7.74693 -0.504553 -0.664067
lowerneck -12.9638 2.43291 9.32393
upperneck 31.4196 3.45551 -7.48278
head 12.9183 1.67318 -4.03859
rclavicle 4.26145e-015 5.76476e-015
rhumerus 32.0575 11.7479 -62.2623
rradius 65.6891
rwrist 0.0482393
rhand 29.4901 -34.4259
rfingers 7.12502
rthumb 53.248 -53.76
lclavicle 4.26145e-015 5.76476e-015
lhumerus 27.3139 -9.92604 56.9313
lradius 79.6715
lwrist -9.47614
lhand 34.4442 25.1012
lfingers 7.12502
lthumb 57.6519 41.1309
rfemur -26.3116 -5.04952 16.7812
rtibia 49.4094
rfoot -27.8686 -8.70951
rtoes -13.0887
lfemur -27.1999 1.76982 -16.8086
ltibia 49.5164
lfoot -25.2578 9.63788
ltoes -13.0515
321
root -0.139316 14.9589 -1.78469 8.13759 -0.926267 -0.689124
lowerback 2.81564 -0.67808 0.501963
upperback -5.87193 -0.911526 -0.461497
thorax -7.7321 -0.496041 -0.678315
lowerneck -12.9722 2.45549 9.3569
upperneck 31.4964 3.52862 -7.61988
head 12.9634 1.69317 -4.09155
rclavicle 4.57205e-015 1.05356e-014
rhumerus 32.0609 11.7259 -62.2573
rradius 65.6806
rwrist 0.0570356
rhand 29.4861 -34.4348
rfingers 7.12502
rthumb 53.2443 -53.7712
lclavicle 4.57205e-015 1.05356e-014
lhumerus 27.3431 -9.9526 56.9089
lradius 79.6656
lwrist -9.48605
lhand 34.4752 25.0816
lfingers 7.12502
lthumb 57.679 41.0876
rfemur -26.3217 -5.05019 16.7944
rtibia 49.4037
rfoot -27.8579 -8.70752
rtoes -13.0968
lfemur -27.2053 1.76891 -16.7953
ltibia 49.5119
lfoot -25.2588 9.62893
ltoes -13.017
322
root -0.140046 14.9591 -1.78244 8.1358 -0.936371 -0.688089
lowerback 2.8159 -0.679124 0.487745
upperback -5.8773 -0.913133 -0.449983
thorax -7.7376 -0.495617 -0.658094
lowerneck -12.9195 2.4843 9.36574
upperneck 31.5385 3.62262 -7.76038
head 12.9826 1.71959 -4.13711
rclavicle -3.10601e-016 6.16232e-015
rhumerus 32.0601 11.7603 -62.2655
rradius 65.6794
rwrist 0.0783648
rhand 29.5165 -34.4308
rfingers 7.12502
rthumb 53.2717 -53.7495
lclavicle -3.10601e-016 6.16232e-015
lhumerus 27.2536 -9.93309 56.9211
lradius 79.6702
lwrist -9.51523
lhand 34.4602 25.0637
lfingers 7.12502
lthumb 57.6659 41.0812
rfemur -26.3107 -5.04015 16.7981
rtibia 49.402
rfoot -27.8324 -8.72334
rtoes -13.1266
lfemur -27.1899 1.77552 -16.7923
ltibia 49.5084
lfoot -25.2733 9.62199
ltoes -13.023
323
root -0.140146 14.9593 -1.78028 8.13934 -0.92644 -0.712189
lowerback 2.80673 -0.677966 0.525077
upperback -5.87047 -0.909026 -0.449425
thorax -7.72545 -0.495758 -0.678952
lowerneck -12.9336 2.51256 9.3989
upperneck 31.6165 3.701 -7.88904
head 13.0304 1.74279 -4.18632
rclavicle 1.42131e-014 -4.17448e-015
rhumerus 32.0628 11.7633 -62.2717
rradius 65.6719
rwrist 0.106679
rhand 29.5341 -34.4496
rfingers 7.12502
rthumb 53.2876 -53.7581
lclavicle 1.42131e-014 -4.17448e-015
lhumerus 27.2784 -9.93689 56.9031
lradius 79.6586
lwrist -9.50621
lhand 34.4204 25.0521
lfingers 7.12502
lthumb 57.6311 41.0999
rfemur -26.3034 -5.05218 16.8251
rtibia 49.3964
rfoot -27.8206 -8.71454
rtoes -13.1027
lfemur -27.1819 1.7838 -16.7651
ltibia 49.506
lfoot -25.2753 9.60858
ltoes -13.0732
324
root -0.141041 14.9593 -1.778 8.13913 -0.920648 -0.715145
lowerback 2.82824 -0.681527 0.518532
upperback -5.89178 -0.913695 -0.440965
thorax -7.76084 -0.497517 -0.665601
lowerneck -12.8632 2.52213 9.36294
upperneck 31.6574 3.75688 -7.95761
head 13.039 1.75629 -4.20078
rclavicle 7.15625e-015 -6.95746e-015
rhumerus 32.0224 11.8103 -62.2602
rradius 65.674
rwrist 0.105989
rhand 29.627 -34.4832
rfingers 7.12502
rthumb 53.3713 -53.7375
lclavicle 7.15625e-015 -6.95746e-015
lhumerus 27.2314 -9.93984 56.9035
lradius 79.6615
lwrist -9.52456
lhand 34.3906 25.053
lfingers 7.12502
lthumb 57.6051 41.1235
rfemur -26.2899 -5.0574 16.8333
rtibia 49.3962
rfoot -27.8324 -8.71666
rtoes -13.0691
lfemur -27.1784 1.76988 -16.7569
ltibia 49.5047
lfoot -25.2592 9.62099
ltoes -13.1095
325
root -0.140819 14.9608 -1.77442 8.12939 -0.915794 -0.689039
lowerback 2.81248 -0.684161 0.503826
upperback -5.8814 -0.919165 -0.45479
thorax -7.74051 -0.499737 -0.671582
lowerneck -12.8682 2.5453 9.40633
upperneck 31.7308 3.82458 -8.08289
head 13.0823 1.77644 -4.25208
rclavicle -6.37353e-015 -7.95139e-016
rhumerus 32.0429 11.8186 -62.2755
rradius 65.6629
rwrist 0.11227
rhand 29.6405 -34.4547
rfingers 7.12502
rthumb 53.3834 -53.7013
lclavicle -6.37353e-015 -7.95139e-016
lhumerus 27.2483 -9.93135 56.8784
lradius 79.657
lwrist -9.53079
lhand 34.4378 25.0357
lfingers 7.12502
lthumb 57.6463 41.0703
rfemur -26.263 -5.08368 16.8006
rtibia 49.3998
rfoot -27.8439 -8.69767
rtoes -13.1183
lfemur -27.1412 1.76174 -16.7876
ltibia 49.494
lfoot -25.2713 9.60643
ltoes -13.0515
326
root -0.140835 14.9612 -1.77269 8.15038 -0.910187 -0.691562
lowerback 2.79921 -0.690195 0.504282
upperback -5.89645 -0.92653 -0.442736
thorax -7.7489 -0.503056 -0.658565
lowerneck -12.8349 2.57005 9.3972
upperneck 31.7735 3.89773 -8.16762
head 13.103 1.79813 -4.27552
rclavicle 1.93815e-015 2.78299e-015
rhumerus 32.0271 11.8537 -62.2813
rradius 65.6933
rwrist 0.115653
rhand 29.6783 -34.5597
rfingers 7.12502
rthumb 53.4175 -53.7841
lclavicle 1.93815e-015 2.78299e-015
lhumerus 27.2175 -9.91724 56.886
lradius 79.6635
lwrist -9.54481
lhand 34.4133 25.0232
lfingers 7.12502
lthumb 57.6249 41.0765
rfemur -26.2828 -5.10051 16.8077
rtibia 49.4083
rfoot -27.8418 -8.69376
rtoes -13.0839
lfemur -27.1614 1.75443 -16.7851
ltibia 49.497
lfoot -25.256 9.6163
ltoes -13.1399
327
root -0.141281 14.9603 -1.77061 8.14312 -0.902296 -0.663045
lowerback 2.80127 -0.683363 0.477486
upperback -5.88721 -0.920272 -0.460377
thorax -7.73987 -0.498917 -0.662683
lowerneck -12.8658 2.59661 9.42819
upperneck 31.8322 3.95341 -8.2391
head 13.1434 1.8177 -4.30423
rclavicle 1.17531e-014 -4.96962e-015
rhumerus 32.0345 11.8311 -62.2834
rradius 65.6743
rwrist 0.105303
rhand 29.6753 -34.5144
rfingers 7.12502
rthumb 53.4148 -53.7405
lclavicle 1.17531e-014 -4.96962e-015
lhumerus 27.2646 -9.92501 56.88
lradius 79.6583
lwrist -9.54763
lhand 34.4376 24.9991
lfingers 7.12502
lthumb 57.6462 41.0338
rfemur -26.274 -5.12053 16.7749
rtibia 49.4228
rfoot -27.8275 -8.68306
rtoes -13.1533
lfemur -27.141 1.7446 -16.8127
ltibia 49.4953
lfoot -25.2647 9.60728
ltoes -13.1278
